<svg width="1940" height="343" viewBox="0 0 1940 343" fill="none" xmlns="http://www.w3.org/2000/svg">
<g clip-path="url(#clip0_0_26)">
<rect width="1940" height="343" fill="white"/>
<rect x="-3.89996" width="80.3148" height="20.5514" rx="3" fill="#E14646" fill-opacity="0.3"/>
<path d="M3.75291 14V3.81818H7.19325C7.98871 3.81818 8.64164 3.95407 9.15206 4.22585C9.66248 4.49432 10.0403 4.86387 10.2856 5.33452C10.5308 5.80516 10.6535 6.34044 10.6535 6.94034C10.6535 7.54025 10.5308 8.07221 10.2856 8.53622C10.0403 9.00024 9.66413 9.36482 9.15703 9.62997C8.64993 9.89181 8.00197 10.0227 7.21314 10.0227H4.42905V8.90909H7.17337C7.71693 8.90909 8.15443 8.82955 8.48587 8.67045C8.82062 8.51136 9.06257 8.28598 9.21172 7.99432C9.36418 7.69934 9.44041 7.34801 9.44041 6.94034C9.44041 6.53267 9.36418 6.17637 9.21172 5.87145C9.05926 5.56652 8.81565 5.3312 8.4809 5.16548C8.14614 4.99645 7.70367 4.91193 7.15348 4.91193H4.98587V14H3.75291ZM8.54553 9.42614L11.0512 14H9.61939L7.15348 9.42614H8.54553ZM15.6686 14.1591C14.9328 14.1591 14.2981 13.9967 13.7645 13.6719C13.2342 13.3438 12.8248 12.8864 12.5365 12.2997C12.2514 11.7098 12.1089 11.0237 12.1089 10.2415C12.1089 9.45928 12.2514 8.76989 12.5365 8.1733C12.8248 7.57339 13.2259 7.10606 13.7396 6.77131C14.2566 6.43324 14.8599 6.2642 15.5493 6.2642C15.947 6.2642 16.3397 6.33049 16.7275 6.46307C17.1153 6.59564 17.4683 6.81108 17.7865 7.10938C18.1047 7.40436 18.3582 7.79545 18.5471 8.28267C18.736 8.76989 18.8305 9.36979 18.8305 10.0824V10.5795H12.9441V9.56534H17.6373C17.6373 9.13447 17.5511 8.75 17.3788 8.41193C17.2098 8.07386 16.9678 7.80705 16.6529 7.61151C16.3414 7.41596 15.9735 7.31818 15.5493 7.31818C15.0819 7.31818 14.6776 7.43419 14.3362 7.66619C13.9981 7.89489 13.7379 8.19318 13.5556 8.56108C13.3734 8.92898 13.2822 9.32339 13.2822 9.74432V10.4205C13.2822 10.9972 13.3816 11.486 13.5805 11.8871C13.7827 12.2848 14.0627 12.5881 14.4207 12.7969C14.7787 13.0024 15.1946 13.1051 15.6686 13.1051C15.9768 13.1051 16.2552 13.062 16.5038 12.9759C16.7557 12.8864 16.9728 12.7538 17.1551 12.5781C17.3374 12.3991 17.4782 12.1771 17.5777 11.9119L18.7112 12.2301C18.5919 12.6146 18.3913 12.9527 18.1096 13.2443C17.8279 13.5327 17.4799 13.758 17.0656 13.9205C16.6513 14.0795 16.1856 14.1591 15.6686 14.1591ZM23.4988 14.1591C22.8625 14.1591 22.3007 13.9983 21.8135 13.6768C21.3262 13.352 20.9451 12.8946 20.67 12.3047C20.3949 11.7114 20.2574 11.0104 20.2574 10.2017C20.2574 9.39962 20.3949 8.7036 20.67 8.11364C20.9451 7.52367 21.3279 7.06794 21.8184 6.74645C22.309 6.42495 22.8757 6.2642 23.5187 6.2642C24.0159 6.2642 24.4086 6.34706 24.697 6.51278C24.9886 6.67519 25.2107 6.8608 25.3632 7.0696C25.519 7.27509 25.6399 7.44413 25.7261 7.5767H25.8255V3.81818H26.9988V14H25.8653V12.8267H25.7261C25.6399 12.9659 25.5173 13.1416 25.3582 13.3537C25.1991 13.5625 24.9721 13.7498 24.6771 13.9155C24.3821 14.0779 23.9894 14.1591 23.4988 14.1591ZM23.6579 13.1051C24.1286 13.1051 24.5263 12.9825 24.8511 12.7372C25.1759 12.4886 25.4228 12.1456 25.5919 11.7081C25.7609 11.2673 25.8454 10.7585 25.8454 10.1818C25.8454 9.61174 25.7626 9.11293 25.5968 8.68537C25.4311 8.2545 25.1859 7.91974 24.861 7.68111C24.5362 7.43916 24.1352 7.31818 23.6579 7.31818C23.1608 7.31818 22.7465 7.44579 22.415 7.70099C22.0869 7.95289 21.84 8.29593 21.6743 8.73011C21.5119 9.16098 21.4306 9.64489 21.4306 10.1818C21.4306 10.7254 21.5135 11.2192 21.6792 11.6634C21.8483 12.1042 22.0968 12.4555 22.425 12.7173C22.7564 12.9759 23.1674 13.1051 23.6579 13.1051ZM36.5691 6.36364V7.35795H32.6118V6.36364H36.5691ZM33.7652 4.53409H34.9385V11.8125C34.9385 12.1439 34.9865 12.3925 35.0826 12.5582C35.1821 12.7206 35.308 12.83 35.4605 12.8864C35.6163 12.9394 35.7803 12.9659 35.9527 12.9659C36.0819 12.9659 36.188 12.9593 36.2708 12.946C36.3537 12.9295 36.42 12.9162 36.4697 12.9062L36.7083 13.9602C36.6288 13.9901 36.5178 14.0199 36.3752 14.0497C36.2327 14.0829 36.0521 14.0994 35.8333 14.0994C35.5019 14.0994 35.1771 14.0282 34.8589 13.8857C34.544 13.7431 34.2822 13.526 34.0734 13.2344C33.8679 12.9427 33.7652 12.5748 33.7652 12.1307V4.53409ZM40.5812 14.179C40.0973 14.179 39.6582 14.0878 39.2637 13.9055C38.8693 13.7199 38.5561 13.4531 38.3241 13.1051C38.0921 12.7538 37.9761 12.3295 37.9761 11.8324C37.9761 11.3949 38.0623 11.0402 38.2346 10.7685C38.407 10.4934 38.6373 10.2779 38.9257 10.1222C39.214 9.96638 39.5322 9.85038 39.8802 9.77415C40.2315 9.6946 40.5845 9.63163 40.9392 9.58523C41.4032 9.52557 41.7794 9.48082 42.0677 9.45099C42.3594 9.41785 42.5715 9.36316 42.7041 9.28693C42.84 9.2107 42.9079 9.07812 42.9079 8.8892V8.84943C42.9079 8.3589 42.7737 7.97775 42.5052 7.70597C42.2401 7.43419 41.8374 7.2983 41.2971 7.2983C40.737 7.2983 40.2978 7.42093 39.9797 7.66619C39.6615 7.91146 39.4377 8.1733 39.3085 8.4517L38.1949 8.05398C38.3937 7.58996 38.6589 7.22869 38.9903 6.97017C39.3251 6.70833 39.6896 6.52604 40.0841 6.4233C40.4818 6.31723 40.8729 6.2642 41.2574 6.2642C41.5026 6.2642 41.7843 6.29403 42.1025 6.35369C42.424 6.41004 42.7339 6.5277 43.0322 6.70668C43.3338 6.88565 43.5841 7.15578 43.7829 7.51705C43.9818 7.87831 44.0812 8.36222 44.0812 8.96875V14H42.9079V12.9659H42.8483C42.7687 13.1316 42.6361 13.3089 42.4505 13.4979C42.2649 13.6868 42.018 13.8475 41.7098 13.9801C41.4015 14.1127 41.0253 14.179 40.5812 14.179ZM40.7602 13.125C41.2242 13.125 41.6153 13.0339 41.9335 12.8516C42.255 12.6693 42.4969 12.4339 42.6593 12.1456C42.8251 11.8572 42.9079 11.554 42.9079 11.2358V10.1619C42.8582 10.2216 42.7488 10.2763 42.5798 10.326C42.4141 10.3724 42.2218 10.4138 42.0031 10.4503C41.7877 10.4834 41.5772 10.5133 41.3717 10.5398C41.1695 10.563 41.0055 10.5829 40.8795 10.5994C40.5746 10.6392 40.2895 10.7038 40.0244 10.7933C39.7626 10.8795 39.5504 11.0104 39.388 11.1861C39.2289 11.3584 39.1494 11.5937 39.1494 11.892C39.1494 12.2997 39.3002 12.608 39.6018 12.8168C39.9067 13.0223 40.2929 13.125 40.7602 13.125ZM49.3051 17.0227C48.7384 17.0227 48.2511 16.9498 47.8435 16.804C47.4358 16.6615 47.0961 16.4725 46.8243 16.2372C46.5558 16.0052 46.342 15.7566 46.183 15.4915L47.1176 14.8352C47.2237 14.9744 47.3579 15.1335 47.5203 15.3125C47.6827 15.4948 47.9048 15.6522 48.1865 15.7848C48.4715 15.9207 48.8444 15.9886 49.3051 15.9886C49.9216 15.9886 50.4304 15.8395 50.8314 15.5412C51.2324 15.2429 51.433 14.7756 51.433 14.1392V12.5881H51.3335C51.2473 12.7273 51.1247 12.8996 50.9656 13.1051C50.8098 13.3073 50.5845 13.4879 50.2895 13.647C49.9978 13.8028 49.6034 13.8807 49.1063 13.8807C48.4898 13.8807 47.9363 13.7348 47.4457 13.4432C46.9585 13.1515 46.5724 12.7273 46.2874 12.1705C46.0056 11.6136 45.8648 10.9375 45.8648 10.142C45.8648 9.35985 46.0023 8.67874 46.2774 8.09872C46.5525 7.51539 46.9353 7.06463 47.4259 6.74645C47.9164 6.42495 48.4831 6.2642 49.1261 6.2642C49.6233 6.2642 50.0177 6.34706 50.3094 6.51278C50.6044 6.67519 50.8297 6.8608 50.9855 7.0696C51.1446 7.27509 51.2672 7.44413 51.3534 7.5767H51.4727V6.36364H52.6063V14.2188C52.6063 14.875 52.4571 15.4086 52.1588 15.8196C51.8638 16.2339 51.4661 16.5372 50.9656 16.7294C50.4685 16.925 49.915 17.0227 49.3051 17.0227ZM49.2653 12.8267C49.736 12.8267 50.1337 12.719 50.4585 12.5036C50.7833 12.2881 51.0303 11.9782 51.1993 11.5739C51.3683 11.1695 51.4528 10.6856 51.4528 10.1222C51.4528 9.57197 51.37 9.08641 51.2043 8.66548C51.0385 8.24455 50.7933 7.91477 50.4685 7.67614C50.1437 7.4375 49.7426 7.31818 49.2653 7.31818C48.7682 7.31818 48.3539 7.44413 48.0224 7.69602C47.6943 7.94792 47.4474 8.28598 47.2817 8.71023C47.1193 9.13447 47.0381 9.60511 47.0381 10.1222C47.0381 10.6525 47.1209 11.1214 47.2866 11.5291C47.4557 11.9335 47.7043 12.2517 48.0324 12.4837C48.3638 12.7124 48.7748 12.8267 49.2653 12.8267Z" fill="#37352F"/>
<path d="M-4.00006 0H1944V343H-4.00006V0Z" fill="#CCFFE2"/>
<path fill-rule="evenodd" clip-rule="evenodd" d="M1943.55 237.165V342.999H475.378C535.532 293.689 599.914 248.213 668.418 207.173C1082.63 -40.9792 1540.57 29.3665 1943.55 237.165Z" fill="#FFECEA"/>
<path fill-rule="evenodd" clip-rule="evenodd" d="M1373.87 169.08C1373.93 113.585 1408.92 58.5252 1467.21 46.2886C1518.96 35.4249 1554.8 83.747 1584.16 124.933C1611.76 163.654 1640.07 210.579 1611.16 248.223C1579.64 289.281 1518.29 294.69 1466.96 277.572C1415.17 260.296 1373.82 220.063 1373.87 169.08Z" fill="#0018A4"/>
<path fill-rule="evenodd" clip-rule="evenodd" d="M135.668 64.0355C166.613 63.0843 197.932 81.711 205.784 114.146C212.755 142.942 186.443 163.876 163.996 181.054C142.892 197.204 117.227 213.893 95.7255 198.369C72.2754 181.438 68.1763 147.166 76.8157 118.11C85.5344 88.7876 107.239 64.9093 135.668 64.0355Z" fill="white"/>
<rect x="-4" width="1944" height="100" fill="#0018A4"/>
<path d="M-65.7509 50.11H-57.8379V50.766H-65.7509V62H-66.4069V50.766H-71.3269V62H-71.9829V33.3H-54.8859V33.956H-65.7509V38.876H-54.8859V39.532H-65.7509V44.534H-57.8379V45.19H-65.7509V50.11ZM-71.3269 39.532V44.534H-66.4069V39.532H-71.3269ZM-66.4069 45.19H-71.3269V50.11H-66.4069V45.19ZM-71.3269 33.956V38.876H-66.4069V33.956H-71.3269ZM-55.2879 51.135C-55.2879 44.862 -50.2039 39.778 -43.9309 39.778C-38.9289 39.778 -34.7059 42.976 -33.1889 47.486L-46.5139 55.563C-45.7349 56.014 -44.8739 56.26 -43.9309 56.26C-41.8809 56.26 -40.1179 55.03 -39.2979 53.308L-38.6829 53.595C-39.5849 55.563 -41.5939 56.916 -43.9309 56.916C-45.1199 56.916 -46.2269 56.547 -47.1289 55.932L-51.5569 58.638C-49.6299 60.606 -46.9239 61.836 -43.9309 61.836C-39.6669 61.836 -35.9359 59.294 -34.2139 55.645L-33.6399 55.932C-35.4439 59.827 -39.3799 62.492 -43.9309 62.492C-50.2039 62.492 -55.2879 57.408 -55.2879 51.135ZM-54.6319 51.135C-54.6319 52.324 -54.4269 53.431 -54.0989 54.497L-49.6709 51.791C-49.7119 51.586 -49.7119 51.34 -49.7119 51.135C-49.7119 47.937 -47.1289 45.354 -43.9309 45.354C-42.7419 45.354 -41.5939 45.723 -40.6919 46.338L-36.3049 43.673C-38.2319 41.664 -40.9379 40.434 -43.9309 40.434C-49.8349 40.434 -54.6319 45.231 -54.6319 51.135ZM-53.8529 55.112C-53.4019 56.219 -52.7869 57.244 -52.0079 58.146L-47.7029 55.522C-48.6049 54.743 -49.2609 53.677 -49.5479 52.488L-53.8529 55.112ZM-49.0559 51.135V51.422L-41.3069 46.707C-42.0859 46.256 -42.9879 46.01 -43.9309 46.01C-46.7599 46.01 -49.0559 48.306 -49.0559 51.135ZM-48.9739 52.16C-48.7279 53.349 -48.0309 54.415 -47.0879 55.153L-38.8879 50.151C-39.1339 48.962 -39.7899 47.896 -40.7329 47.117L-48.9739 52.16ZM-40.1179 46.789C-39.2159 47.568 -38.5599 48.593 -38.3139 49.823L-33.9679 47.158C-34.4189 46.051 -35.0749 45.067 -35.8129 44.165L-40.1179 46.789ZM-29.1456 40.926H-32.3846V40.27H-29.1456V33.3H-28.4896V40.27H-23.5696V33.3H-22.9136V40.27H-19.6746V40.926H-22.9136V45.846H-19.6746V46.502H-22.9136V62H-23.5696V46.502H-28.4896V62H-29.1456V46.502H-32.3846V45.846H-29.1456V40.926ZM-23.5696 40.926H-28.4896V45.846H-23.5696V40.926ZM-6.23687 45.846V46.502H-7.42587C-9.92687 46.502 -12.0589 48.634 -12.0589 51.135C-12.0589 53.636 -9.92687 55.768 -7.42587 55.768H-6.23687V56.424H-7.42587C-10.2959 56.424 -12.7149 54.005 -12.7149 51.135C-12.7149 48.265 -10.2959 45.846 -7.42587 45.846H-6.23687ZM-6.23687 40.926H-7.42587C-13.0429 40.926 -17.6349 45.518 -17.6349 51.135C-17.6349 56.752 -13.0429 61.344 -7.42587 61.344H-6.23687V62H-7.42587C-13.4119 62 -18.2909 57.121 -18.2909 51.135C-18.2909 45.149 -13.4119 40.27 -7.42587 40.27H-6.23687V40.926ZM-2.76789 62V31.25H-2.11189V46.461C-1.20989 44.124 0.553113 42.197 2.80811 41.09V31.25H3.46411V40.762C4.61211 40.311 5.84211 40.065 7.15411 40.065C12.6071 40.065 17.0761 44.534 17.0761 49.987V62H16.4201V49.987C16.4201 44.903 12.2381 40.721 7.15411 40.721C5.84211 40.721 4.61211 41.008 3.46411 41.5V47.691C4.24311 46.461 5.59611 45.641 7.15411 45.641C9.53211 45.641 11.5001 47.609 11.5001 49.987V62H10.8441V49.987C10.8441 47.978 9.16311 46.297 7.15411 46.297C5.14511 46.297 3.46411 47.978 3.46411 49.987V62H2.80811V41.828C-0.102887 43.386 -2.11189 46.461 -2.11189 49.987V62H-2.76789ZM43.8719 33.3H44.5279L56.1309 62H55.4749L53.7939 57.818H48.3819L50.0629 62H49.4069L47.7259 57.818H34.5649L32.8839 62H32.2279L33.9089 57.818H28.4969L26.8159 62H26.1599L37.8039 33.3H38.4599L41.1659 40.024L43.8719 33.3ZM37.1479 51.586H45.1839L41.1659 41.664L37.1479 51.586ZM38.1319 34.12L31.0799 51.586H36.4919L40.8379 40.844L38.1319 34.12ZM41.4939 40.844L45.8399 51.586H51.2519L44.1999 34.12L41.4939 40.844ZM34.8519 57.162H47.4389L45.4299 52.242H36.8609L34.8519 57.162ZM46.0859 52.242L48.0949 57.162H53.5069L51.5389 52.242H46.0859ZM34.1959 57.162L36.2049 52.242H30.7929L28.7839 57.162H34.1959ZM64.4961 39.532V45.928H67.4071C69.2111 45.928 70.6051 44.534 70.6051 42.73C70.6051 40.926 69.2111 39.532 67.4071 39.532H64.4961ZM64.4961 38.876H67.4071C69.5391 38.876 71.2611 40.598 71.2611 42.73C71.2611 44.862 69.5391 46.584 67.4071 46.584H64.4961V51.504H67.4071C72.3271 51.504 76.1811 47.65 76.1811 42.73C76.1811 37.81 72.3271 33.956 67.4071 33.956H64.4961V38.876ZM58.9201 52.16V62H58.2641V33.3H67.4071C72.6551 33.3 76.8371 37.482 76.8371 42.73C76.8371 47.978 72.6551 52.16 67.4071 52.16H64.4961V62H63.8401V52.16H58.9201ZM58.9201 39.532V45.928H63.8401V39.532H58.9201ZM63.8401 33.956H58.9201V38.876H63.8401V33.956ZM63.8401 46.584H58.9201V51.504H63.8401V46.584ZM81.0217 33.3V62H80.3657V33.3H81.0217ZM86.5977 33.3V62H85.9417V33.3H86.5977ZM106.697 50.11H114.61V50.766H106.697V62H106.041V50.766H101.121V62H100.465V33.3H117.562V33.956H106.697V38.876H117.562V39.532H106.697V44.534H114.61V45.19H106.697V50.11ZM101.121 39.532V44.534H106.041V39.532H101.121ZM106.041 45.19H101.121V50.11H106.041V45.19ZM101.121 33.956V38.876H106.041V33.956H101.121ZM117.16 51.135C117.16 44.862 122.244 39.778 128.517 39.778C133.519 39.778 137.742 42.976 139.259 47.486L125.934 55.563C126.713 56.014 127.574 56.26 128.517 56.26C130.567 56.26 132.33 55.03 133.15 53.308L133.765 53.595C132.863 55.563 130.854 56.916 128.517 56.916C127.328 56.916 126.221 56.547 125.319 55.932L120.891 58.638C122.818 60.606 125.524 61.836 128.517 61.836C132.781 61.836 136.512 59.294 138.234 55.645L138.808 55.932C137.004 59.827 133.068 62.492 128.517 62.492C122.244 62.492 117.16 57.408 117.16 51.135ZM117.816 51.135C117.816 52.324 118.021 53.431 118.349 54.497L122.777 51.791C122.736 51.586 122.736 51.34 122.736 51.135C122.736 47.937 125.319 45.354 128.517 45.354C129.706 45.354 130.854 45.723 131.756 46.338L136.143 43.673C134.216 41.664 131.51 40.434 128.517 40.434C122.613 40.434 117.816 45.231 117.816 51.135ZM118.595 55.112C119.046 56.219 119.661 57.244 120.44 58.146L124.745 55.522C123.843 54.743 123.187 53.677 122.9 52.488L118.595 55.112ZM123.392 51.135V51.422L131.141 46.707C130.362 46.256 129.46 46.01 128.517 46.01C125.688 46.01 123.392 48.306 123.392 51.135ZM123.474 52.16C123.72 53.349 124.417 54.415 125.36 55.153L133.56 50.151C133.314 48.962 132.658 47.896 131.715 47.117L123.474 52.16ZM132.33 46.789C133.232 47.568 133.888 48.593 134.134 49.823L138.48 47.158C138.029 46.051 137.373 45.067 136.635 44.165L132.33 46.789ZM143.303 40.926H140.064V40.27H143.303V33.3H143.959V40.27H148.879V33.3H149.535V40.27H152.774V40.926H149.535V45.846H152.774V46.502H149.535V62H148.879V46.502H143.959V62H143.303V46.502H140.064V45.846H143.303V40.926ZM148.879 40.926H143.959V45.846H148.879V40.926ZM166.211 45.846V46.502H165.022C162.521 46.502 160.389 48.634 160.389 51.135C160.389 53.636 162.521 55.768 165.022 55.768H166.211V56.424H165.022C162.152 56.424 159.733 54.005 159.733 51.135C159.733 48.265 162.152 45.846 165.022 45.846H166.211ZM166.211 40.926H165.022C159.405 40.926 154.813 45.518 154.813 51.135C154.813 56.752 159.405 61.344 165.022 61.344H166.211V62H165.022C159.036 62 154.157 57.121 154.157 51.135C154.157 45.149 159.036 40.27 165.022 40.27H166.211V40.926ZM169.68 62V31.25H170.336V46.461C171.238 44.124 173.001 42.197 175.256 41.09V31.25H175.912V40.762C177.06 40.311 178.29 40.065 179.602 40.065C185.055 40.065 189.524 44.534 189.524 49.987V62H188.868V49.987C188.868 44.903 184.686 40.721 179.602 40.721C178.29 40.721 177.06 41.008 175.912 41.5V47.691C176.691 46.461 178.044 45.641 179.602 45.641C181.98 45.641 183.948 47.609 183.948 49.987V62H183.292V49.987C183.292 47.978 181.611 46.297 179.602 46.297C177.593 46.297 175.912 47.978 175.912 49.987V62H175.256V41.828C172.345 43.386 170.336 46.461 170.336 49.987V62H169.68ZM216.32 33.3H216.976L228.579 62H227.923L226.242 57.818H220.83L222.511 62H221.855L220.174 57.818H207.013L205.332 62H204.676L206.357 57.818H200.945L199.264 62H198.608L210.252 33.3H210.908L213.614 40.024L216.32 33.3ZM209.596 51.586H217.632L213.614 41.664L209.596 51.586ZM210.58 34.12L203.528 51.586H208.94L213.286 40.844L210.58 34.12ZM213.942 40.844L218.288 51.586H223.7L216.648 34.12L213.942 40.844ZM207.3 57.162H219.887L217.878 52.242H209.309L207.3 57.162ZM218.534 52.242L220.543 57.162H225.955L223.987 52.242H218.534ZM206.644 57.162L208.653 52.242H203.241L201.232 57.162H206.644ZM236.944 39.532V45.928H239.855C241.659 45.928 243.053 44.534 243.053 42.73C243.053 40.926 241.659 39.532 239.855 39.532H236.944ZM236.944 38.876H239.855C241.987 38.876 243.709 40.598 243.709 42.73C243.709 44.862 241.987 46.584 239.855 46.584H236.944V51.504H239.855C244.775 51.504 248.629 47.65 248.629 42.73C248.629 37.81 244.775 33.956 239.855 33.956H236.944V38.876ZM231.368 52.16V62H230.712V33.3H239.855C245.103 33.3 249.285 37.482 249.285 42.73C249.285 47.978 245.103 52.16 239.855 52.16H236.944V62H236.288V52.16H231.368ZM231.368 39.532V45.928H236.288V39.532H231.368ZM236.288 33.956H231.368V38.876H236.288V33.956ZM236.288 46.584H231.368V51.504H236.288V46.584ZM253.47 33.3V62H252.814V33.3H253.47ZM259.046 33.3V62H258.39V33.3H259.046ZM279.146 50.11H287.059V50.766H279.146V62H278.49V50.766H273.57V62H272.914V33.3H290.011V33.956H279.146V38.876H290.011V39.532H279.146V44.534H287.059V45.19H279.146V50.11ZM273.57 39.532V44.534H278.49V39.532H273.57ZM278.49 45.19H273.57V50.11H278.49V45.19ZM273.57 33.956V38.876H278.49V33.956H273.57ZM289.609 51.135C289.609 44.862 294.693 39.778 300.966 39.778C305.968 39.778 310.191 42.976 311.708 47.486L298.383 55.563C299.162 56.014 300.023 56.26 300.966 56.26C303.016 56.26 304.779 55.03 305.599 53.308L306.214 53.595C305.312 55.563 303.303 56.916 300.966 56.916C299.777 56.916 298.67 56.547 297.768 55.932L293.34 58.638C295.267 60.606 297.973 61.836 300.966 61.836C305.23 61.836 308.961 59.294 310.683 55.645L311.257 55.932C309.453 59.827 305.517 62.492 300.966 62.492C294.693 62.492 289.609 57.408 289.609 51.135ZM290.265 51.135C290.265 52.324 290.47 53.431 290.798 54.497L295.226 51.791C295.185 51.586 295.185 51.34 295.185 51.135C295.185 47.937 297.768 45.354 300.966 45.354C302.155 45.354 303.303 45.723 304.205 46.338L308.592 43.673C306.665 41.664 303.959 40.434 300.966 40.434C295.062 40.434 290.265 45.231 290.265 51.135ZM291.044 55.112C291.495 56.219 292.11 57.244 292.889 58.146L297.194 55.522C296.292 54.743 295.636 53.677 295.349 52.488L291.044 55.112ZM295.841 51.135V51.422L303.59 46.707C302.811 46.256 301.909 46.01 300.966 46.01C298.137 46.01 295.841 48.306 295.841 51.135ZM295.923 52.16C296.169 53.349 296.866 54.415 297.809 55.153L306.009 50.151C305.763 48.962 305.107 47.896 304.164 47.117L295.923 52.16ZM304.779 46.789C305.681 47.568 306.337 48.593 306.583 49.823L310.929 47.158C310.478 46.051 309.822 45.067 309.084 44.165L304.779 46.789ZM315.751 40.926H312.512V40.27H315.751V33.3H316.407V40.27H321.327V33.3H321.983V40.27H325.222V40.926H321.983V45.846H325.222V46.502H321.983V62H321.327V46.502H316.407V62H315.751V46.502H312.512V45.846H315.751V40.926ZM321.327 40.926H316.407V45.846H321.327V40.926ZM338.66 45.846V46.502H337.471C334.97 46.502 332.838 48.634 332.838 51.135C332.838 53.636 334.97 55.768 337.471 55.768H338.66V56.424H337.471C334.601 56.424 332.182 54.005 332.182 51.135C332.182 48.265 334.601 45.846 337.471 45.846H338.66ZM338.66 40.926H337.471C331.854 40.926 327.262 45.518 327.262 51.135C327.262 56.752 331.854 61.344 337.471 61.344H338.66V62H337.471C331.485 62 326.606 57.121 326.606 51.135C326.606 45.149 331.485 40.27 337.471 40.27H338.66V40.926ZM342.129 62V31.25H342.785V46.461C343.687 44.124 345.45 42.197 347.705 41.09V31.25H348.361V40.762C349.509 40.311 350.739 40.065 352.051 40.065C357.504 40.065 361.973 44.534 361.973 49.987V62H361.317V49.987C361.317 44.903 357.135 40.721 352.051 40.721C350.739 40.721 349.509 41.008 348.361 41.5V47.691C349.14 46.461 350.493 45.641 352.051 45.641C354.429 45.641 356.397 47.609 356.397 49.987V62H355.741V49.987C355.741 47.978 354.06 46.297 352.051 46.297C350.042 46.297 348.361 47.978 348.361 49.987V62H347.705V41.828C344.794 43.386 342.785 46.461 342.785 49.987V62H342.129ZM388.768 33.3H389.424L401.027 62H400.371L398.69 57.818H393.278L394.959 62H394.303L392.622 57.818H379.461L377.78 62H377.124L378.805 57.818H373.393L371.712 62H371.056L382.7 33.3H383.356L386.062 40.024L388.768 33.3ZM382.044 51.586H390.08L386.062 41.664L382.044 51.586ZM383.028 34.12L375.976 51.586H381.388L385.734 40.844L383.028 34.12ZM386.39 40.844L390.736 51.586H396.148L389.096 34.12L386.39 40.844ZM379.748 57.162H392.335L390.326 52.242H381.757L379.748 57.162ZM390.982 52.242L392.991 57.162H398.403L396.435 52.242H390.982ZM379.092 57.162L381.101 52.242H375.689L373.68 57.162H379.092ZM409.393 39.532V45.928H412.304C414.108 45.928 415.502 44.534 415.502 42.73C415.502 40.926 414.108 39.532 412.304 39.532H409.393ZM409.393 38.876H412.304C414.436 38.876 416.158 40.598 416.158 42.73C416.158 44.862 414.436 46.584 412.304 46.584H409.393V51.504H412.304C417.224 51.504 421.078 47.65 421.078 42.73C421.078 37.81 417.224 33.956 412.304 33.956H409.393V38.876ZM403.817 52.16V62H403.161V33.3H412.304C417.552 33.3 421.734 37.482 421.734 42.73C421.734 47.978 417.552 52.16 412.304 52.16H409.393V62H408.737V52.16H403.817ZM403.817 39.532V45.928H408.737V39.532H403.817ZM408.737 33.956H403.817V38.876H408.737V33.956ZM408.737 46.584H403.817V51.504H408.737V46.584ZM425.918 33.3V62H425.262V33.3H425.918ZM431.494 33.3V62H430.838V33.3H431.494ZM451.594 50.11H459.507V50.766H451.594V62H450.938V50.766H446.018V62H445.362V33.3H462.459V33.956H451.594V38.876H462.459V39.532H451.594V44.534H459.507V45.19H451.594V50.11ZM446.018 39.532V44.534H450.938V39.532H446.018ZM450.938 45.19H446.018V50.11H450.938V45.19ZM446.018 33.956V38.876H450.938V33.956H446.018ZM462.057 51.135C462.057 44.862 467.141 39.778 473.414 39.778C478.416 39.778 482.639 42.976 484.156 47.486L470.831 55.563C471.61 56.014 472.471 56.26 473.414 56.26C475.464 56.26 477.227 55.03 478.047 53.308L478.662 53.595C477.76 55.563 475.751 56.916 473.414 56.916C472.225 56.916 471.118 56.547 470.216 55.932L465.788 58.638C467.715 60.606 470.421 61.836 473.414 61.836C477.678 61.836 481.409 59.294 483.131 55.645L483.705 55.932C481.901 59.827 477.965 62.492 473.414 62.492C467.141 62.492 462.057 57.408 462.057 51.135ZM462.713 51.135C462.713 52.324 462.918 53.431 463.246 54.497L467.674 51.791C467.633 51.586 467.633 51.34 467.633 51.135C467.633 47.937 470.216 45.354 473.414 45.354C474.603 45.354 475.751 45.723 476.653 46.338L481.04 43.673C479.113 41.664 476.407 40.434 473.414 40.434C467.51 40.434 462.713 45.231 462.713 51.135ZM463.492 55.112C463.943 56.219 464.558 57.244 465.337 58.146L469.642 55.522C468.74 54.743 468.084 53.677 467.797 52.488L463.492 55.112ZM468.289 51.135V51.422L476.038 46.707C475.259 46.256 474.357 46.01 473.414 46.01C470.585 46.01 468.289 48.306 468.289 51.135ZM468.371 52.16C468.617 53.349 469.314 54.415 470.257 55.153L478.457 50.151C478.211 48.962 477.555 47.896 476.612 47.117L468.371 52.16ZM477.227 46.789C478.129 47.568 478.785 48.593 479.031 49.823L483.377 47.158C482.926 46.051 482.27 45.067 481.532 44.165L477.227 46.789ZM488.199 40.926H484.96V40.27H488.199V33.3H488.855V40.27H493.775V33.3H494.431V40.27H497.67V40.926H494.431V45.846H497.67V46.502H494.431V62H493.775V46.502H488.855V62H488.199V46.502H484.96V45.846H488.199V40.926ZM493.775 40.926H488.855V45.846H493.775V40.926ZM511.108 45.846V46.502H509.919C507.418 46.502 505.286 48.634 505.286 51.135C505.286 53.636 507.418 55.768 509.919 55.768H511.108V56.424H509.919C507.049 56.424 504.63 54.005 504.63 51.135C504.63 48.265 507.049 45.846 509.919 45.846H511.108ZM511.108 40.926H509.919C504.302 40.926 499.71 45.518 499.71 51.135C499.71 56.752 504.302 61.344 509.919 61.344H511.108V62H509.919C503.933 62 499.054 57.121 499.054 51.135C499.054 45.149 503.933 40.27 509.919 40.27H511.108V40.926ZM514.577 62V31.25H515.233V46.461C516.135 44.124 517.898 42.197 520.153 41.09V31.25H520.809V40.762C521.957 40.311 523.187 40.065 524.499 40.065C529.952 40.065 534.421 44.534 534.421 49.987V62H533.765V49.987C533.765 44.903 529.583 40.721 524.499 40.721C523.187 40.721 521.957 41.008 520.809 41.5V47.691C521.588 46.461 522.941 45.641 524.499 45.641C526.877 45.641 528.845 47.609 528.845 49.987V62H528.189V49.987C528.189 47.978 526.508 46.297 524.499 46.297C522.49 46.297 520.809 47.978 520.809 49.987V62H520.153V41.828C517.242 43.386 515.233 46.461 515.233 49.987V62H514.577ZM561.217 33.3H561.873L573.476 62H572.82L571.139 57.818H565.727L567.408 62H566.752L565.071 57.818H551.91L550.229 62H549.573L551.254 57.818H545.842L544.161 62H543.505L555.149 33.3H555.805L558.511 40.024L561.217 33.3ZM554.493 51.586H562.529L558.511 41.664L554.493 51.586ZM555.477 34.12L548.425 51.586H553.837L558.183 40.844L555.477 34.12ZM558.839 40.844L563.185 51.586H568.597L561.545 34.12L558.839 40.844ZM552.197 57.162H564.784L562.775 52.242H554.206L552.197 57.162ZM563.431 52.242L565.44 57.162H570.852L568.884 52.242H563.431ZM551.541 57.162L553.55 52.242H548.138L546.129 57.162H551.541ZM581.841 39.532V45.928H584.752C586.556 45.928 587.95 44.534 587.95 42.73C587.95 40.926 586.556 39.532 584.752 39.532H581.841ZM581.841 38.876H584.752C586.884 38.876 588.606 40.598 588.606 42.73C588.606 44.862 586.884 46.584 584.752 46.584H581.841V51.504H584.752C589.672 51.504 593.526 47.65 593.526 42.73C593.526 37.81 589.672 33.956 584.752 33.956H581.841V38.876ZM576.265 52.16V62H575.609V33.3H584.752C590 33.3 594.182 37.482 594.182 42.73C594.182 47.978 590 52.16 584.752 52.16H581.841V62H581.185V52.16H576.265ZM576.265 39.532V45.928H581.185V39.532H576.265ZM581.185 33.956H576.265V38.876H581.185V33.956ZM581.185 46.584H576.265V51.504H581.185V46.584ZM598.366 33.3V62H597.71V33.3H598.366ZM603.942 33.3V62H603.286V33.3H603.942ZM624.042 50.11H631.955V50.766H624.042V62H623.386V50.766H618.466V62H617.81V33.3H634.907V33.956H624.042V38.876H634.907V39.532H624.042V44.534H631.955V45.19H624.042V50.11ZM618.466 39.532V44.534H623.386V39.532H618.466ZM623.386 45.19H618.466V50.11H623.386V45.19ZM618.466 33.956V38.876H623.386V33.956H618.466ZM634.505 51.135C634.505 44.862 639.589 39.778 645.862 39.778C650.864 39.778 655.087 42.976 656.604 47.486L643.279 55.563C644.058 56.014 644.919 56.26 645.862 56.26C647.912 56.26 649.675 55.03 650.495 53.308L651.11 53.595C650.208 55.563 648.199 56.916 645.862 56.916C644.673 56.916 643.566 56.547 642.664 55.932L638.236 58.638C640.163 60.606 642.869 61.836 645.862 61.836C650.126 61.836 653.857 59.294 655.579 55.645L656.153 55.932C654.349 59.827 650.413 62.492 645.862 62.492C639.589 62.492 634.505 57.408 634.505 51.135ZM635.161 51.135C635.161 52.324 635.366 53.431 635.694 54.497L640.122 51.791C640.081 51.586 640.081 51.34 640.081 51.135C640.081 47.937 642.664 45.354 645.862 45.354C647.051 45.354 648.199 45.723 649.101 46.338L653.488 43.673C651.561 41.664 648.855 40.434 645.862 40.434C639.958 40.434 635.161 45.231 635.161 51.135ZM635.94 55.112C636.391 56.219 637.006 57.244 637.785 58.146L642.09 55.522C641.188 54.743 640.532 53.677 640.245 52.488L635.94 55.112ZM640.737 51.135V51.422L648.486 46.707C647.707 46.256 646.805 46.01 645.862 46.01C643.033 46.01 640.737 48.306 640.737 51.135ZM640.819 52.16C641.065 53.349 641.762 54.415 642.705 55.153L650.905 50.151C650.659 48.962 650.003 47.896 649.06 47.117L640.819 52.16ZM649.675 46.789C650.577 47.568 651.233 48.593 651.479 49.823L655.825 47.158C655.374 46.051 654.718 45.067 653.98 44.165L649.675 46.789ZM660.647 40.926H657.408V40.27H660.647V33.3H661.303V40.27H666.223V33.3H666.879V40.27H670.118V40.926H666.879V45.846H670.118V46.502H666.879V62H666.223V46.502H661.303V62H660.647V46.502H657.408V45.846H660.647V40.926ZM666.223 40.926H661.303V45.846H666.223V40.926ZM683.556 45.846V46.502H682.367C679.866 46.502 677.734 48.634 677.734 51.135C677.734 53.636 679.866 55.768 682.367 55.768H683.556V56.424H682.367C679.497 56.424 677.078 54.005 677.078 51.135C677.078 48.265 679.497 45.846 682.367 45.846H683.556ZM683.556 40.926H682.367C676.75 40.926 672.158 45.518 672.158 51.135C672.158 56.752 676.75 61.344 682.367 61.344H683.556V62H682.367C676.381 62 671.502 57.121 671.502 51.135C671.502 45.149 676.381 40.27 682.367 40.27H683.556V40.926ZM687.025 62V31.25H687.681V46.461C688.583 44.124 690.346 42.197 692.601 41.09V31.25H693.257V40.762C694.405 40.311 695.635 40.065 696.947 40.065C702.4 40.065 706.869 44.534 706.869 49.987V62H706.213V49.987C706.213 44.903 702.031 40.721 696.947 40.721C695.635 40.721 694.405 41.008 693.257 41.5V47.691C694.036 46.461 695.389 45.641 696.947 45.641C699.325 45.641 701.293 47.609 701.293 49.987V62H700.637V49.987C700.637 47.978 698.956 46.297 696.947 46.297C694.938 46.297 693.257 47.978 693.257 49.987V62H692.601V41.828C689.69 43.386 687.681 46.461 687.681 49.987V62H687.025ZM733.665 33.3H734.321L745.924 62H745.268L743.587 57.818H738.175L739.856 62H739.2L737.519 57.818H724.358L722.677 62H722.021L723.702 57.818H718.29L716.609 62H715.953L727.597 33.3H728.253L730.959 40.024L733.665 33.3ZM726.941 51.586H734.977L730.959 41.664L726.941 51.586ZM727.925 34.12L720.873 51.586H726.285L730.631 40.844L727.925 34.12ZM731.287 40.844L735.633 51.586H741.045L733.993 34.12L731.287 40.844ZM724.645 57.162H737.232L735.223 52.242H726.654L724.645 57.162ZM735.879 52.242L737.888 57.162H743.3L741.332 52.242H735.879ZM723.989 57.162L725.998 52.242H720.586L718.577 57.162H723.989ZM754.289 39.532V45.928H757.2C759.004 45.928 760.398 44.534 760.398 42.73C760.398 40.926 759.004 39.532 757.2 39.532H754.289ZM754.289 38.876H757.2C759.332 38.876 761.054 40.598 761.054 42.73C761.054 44.862 759.332 46.584 757.2 46.584H754.289V51.504H757.2C762.12 51.504 765.974 47.65 765.974 42.73C765.974 37.81 762.12 33.956 757.2 33.956H754.289V38.876ZM748.713 52.16V62H748.057V33.3H757.2C762.448 33.3 766.63 37.482 766.63 42.73C766.63 47.978 762.448 52.16 757.2 52.16H754.289V62H753.633V52.16H748.713ZM748.713 39.532V45.928H753.633V39.532H748.713ZM753.633 33.956H748.713V38.876H753.633V33.956ZM753.633 46.584H748.713V51.504H753.633V46.584ZM770.815 33.3V62H770.159V33.3H770.815ZM776.391 33.3V62H775.735V33.3H776.391ZM796.49 50.11H804.403V50.766H796.49V62H795.834V50.766H790.914V62H790.258V33.3H807.355V33.956H796.49V38.876H807.355V39.532H796.49V44.534H804.403V45.19H796.49V50.11ZM790.914 39.532V44.534H795.834V39.532H790.914ZM795.834 45.19H790.914V50.11H795.834V45.19ZM790.914 33.956V38.876H795.834V33.956H790.914ZM806.953 51.135C806.953 44.862 812.037 39.778 818.31 39.778C823.312 39.778 827.535 42.976 829.052 47.486L815.727 55.563C816.506 56.014 817.367 56.26 818.31 56.26C820.36 56.26 822.123 55.03 822.943 53.308L823.558 53.595C822.656 55.563 820.647 56.916 818.31 56.916C817.121 56.916 816.014 56.547 815.112 55.932L810.684 58.638C812.611 60.606 815.317 61.836 818.31 61.836C822.574 61.836 826.305 59.294 828.027 55.645L828.601 55.932C826.797 59.827 822.861 62.492 818.31 62.492C812.037 62.492 806.953 57.408 806.953 51.135ZM807.609 51.135C807.609 52.324 807.814 53.431 808.142 54.497L812.57 51.791C812.529 51.586 812.529 51.34 812.529 51.135C812.529 47.937 815.112 45.354 818.31 45.354C819.499 45.354 820.647 45.723 821.549 46.338L825.936 43.673C824.009 41.664 821.303 40.434 818.31 40.434C812.406 40.434 807.609 45.231 807.609 51.135ZM808.388 55.112C808.839 56.219 809.454 57.244 810.233 58.146L814.538 55.522C813.636 54.743 812.98 53.677 812.693 52.488L808.388 55.112ZM813.185 51.135V51.422L820.934 46.707C820.155 46.256 819.253 46.01 818.31 46.01C815.481 46.01 813.185 48.306 813.185 51.135ZM813.267 52.16C813.513 53.349 814.21 54.415 815.153 55.153L823.353 50.151C823.107 48.962 822.451 47.896 821.508 47.117L813.267 52.16ZM822.123 46.789C823.025 47.568 823.681 48.593 823.927 49.823L828.273 47.158C827.822 46.051 827.166 45.067 826.428 44.165L822.123 46.789ZM833.096 40.926H829.857V40.27H833.096V33.3H833.752V40.27H838.672V33.3H839.328V40.27H842.567V40.926H839.328V45.846H842.567V46.502H839.328V62H838.672V46.502H833.752V62H833.096V46.502H829.857V45.846H833.096V40.926ZM838.672 40.926H833.752V45.846H838.672V40.926ZM856.004 45.846V46.502H854.815C852.314 46.502 850.182 48.634 850.182 51.135C850.182 53.636 852.314 55.768 854.815 55.768H856.004V56.424H854.815C851.945 56.424 849.526 54.005 849.526 51.135C849.526 48.265 851.945 45.846 854.815 45.846H856.004ZM856.004 40.926H854.815C849.198 40.926 844.606 45.518 844.606 51.135C844.606 56.752 849.198 61.344 854.815 61.344H856.004V62H854.815C848.829 62 843.95 57.121 843.95 51.135C843.95 45.149 848.829 40.27 854.815 40.27H856.004V40.926ZM859.473 62V31.25H860.129V46.461C861.031 44.124 862.794 42.197 865.049 41.09V31.25H865.705V40.762C866.853 40.311 868.083 40.065 869.395 40.065C874.848 40.065 879.317 44.534 879.317 49.987V62H878.661V49.987C878.661 44.903 874.479 40.721 869.395 40.721C868.083 40.721 866.853 41.008 865.705 41.5V47.691C866.484 46.461 867.837 45.641 869.395 45.641C871.773 45.641 873.741 47.609 873.741 49.987V62H873.085V49.987C873.085 47.978 871.404 46.297 869.395 46.297C867.386 46.297 865.705 47.978 865.705 49.987V62H865.049V41.828C862.138 43.386 860.129 46.461 860.129 49.987V62H859.473ZM906.113 33.3H906.769L918.372 62H917.716L916.035 57.818H910.623L912.304 62H911.648L909.967 57.818H896.806L895.125 62H894.469L896.15 57.818H890.738L889.057 62H888.401L900.045 33.3H900.701L903.407 40.024L906.113 33.3ZM899.389 51.586H907.425L903.407 41.664L899.389 51.586ZM900.373 34.12L893.321 51.586H898.733L903.079 40.844L900.373 34.12ZM903.735 40.844L908.081 51.586H913.493L906.441 34.12L903.735 40.844ZM897.093 57.162H909.68L907.671 52.242H899.102L897.093 57.162ZM908.327 52.242L910.336 57.162H915.748L913.78 52.242H908.327ZM896.437 57.162L898.446 52.242H893.034L891.025 57.162H896.437ZM926.737 39.532V45.928H929.648C931.452 45.928 932.846 44.534 932.846 42.73C932.846 40.926 931.452 39.532 929.648 39.532H926.737ZM926.737 38.876H929.648C931.78 38.876 933.502 40.598 933.502 42.73C933.502 44.862 931.78 46.584 929.648 46.584H926.737V51.504H929.648C934.568 51.504 938.422 47.65 938.422 42.73C938.422 37.81 934.568 33.956 929.648 33.956H926.737V38.876ZM921.161 52.16V62H920.505V33.3H929.648C934.896 33.3 939.078 37.482 939.078 42.73C939.078 47.978 934.896 52.16 929.648 52.16H926.737V62H926.081V52.16H921.161ZM921.161 39.532V45.928H926.081V39.532H921.161ZM926.081 33.956H921.161V38.876H926.081V33.956ZM926.081 46.584H921.161V51.504H926.081V46.584ZM943.263 33.3V62H942.607V33.3H943.263ZM948.839 33.3V62H948.183V33.3H948.839ZM968.939 50.11H976.852V50.766H968.939V62H968.283V50.766H963.363V62H962.707V33.3H979.804V33.956H968.939V38.876H979.804V39.532H968.939V44.534H976.852V45.19H968.939V50.11ZM963.363 39.532V44.534H968.283V39.532H963.363ZM968.283 45.19H963.363V50.11H968.283V45.19ZM963.363 33.956V38.876H968.283V33.956H963.363ZM979.402 51.135C979.402 44.862 984.486 39.778 990.759 39.778C995.761 39.778 999.984 42.976 1001.5 47.486L988.176 55.563C988.955 56.014 989.816 56.26 990.759 56.26C992.809 56.26 994.572 55.03 995.392 53.308L996.007 53.595C995.105 55.563 993.096 56.916 990.759 56.916C989.57 56.916 988.463 56.547 987.561 55.932L983.133 58.638C985.06 60.606 987.766 61.836 990.759 61.836C995.023 61.836 998.754 59.294 1000.48 55.645L1001.05 55.932C999.246 59.827 995.31 62.492 990.759 62.492C984.486 62.492 979.402 57.408 979.402 51.135ZM980.058 51.135C980.058 52.324 980.263 53.431 980.591 54.497L985.019 51.791C984.978 51.586 984.978 51.34 984.978 51.135C984.978 47.937 987.561 45.354 990.759 45.354C991.948 45.354 993.096 45.723 993.998 46.338L998.385 43.673C996.458 41.664 993.752 40.434 990.759 40.434C984.855 40.434 980.058 45.231 980.058 51.135ZM980.837 55.112C981.288 56.219 981.903 57.244 982.682 58.146L986.987 55.522C986.085 54.743 985.429 53.677 985.142 52.488L980.837 55.112ZM985.634 51.135V51.422L993.383 46.707C992.604 46.256 991.702 46.01 990.759 46.01C987.93 46.01 985.634 48.306 985.634 51.135ZM985.716 52.16C985.962 53.349 986.659 54.415 987.602 55.153L995.802 50.151C995.556 48.962 994.9 47.896 993.957 47.117L985.716 52.16ZM994.572 46.789C995.474 47.568 996.13 48.593 996.376 49.823L1000.72 47.158C1000.27 46.051 999.615 45.067 998.877 44.165L994.572 46.789ZM1005.54 40.926H1002.3V40.27H1005.54V33.3H1006.2V40.27H1011.12V33.3H1011.78V40.27H1015.01V40.926H1011.78V45.846H1015.01V46.502H1011.78V62H1011.12V46.502H1006.2V62H1005.54V46.502H1002.3V45.846H1005.54V40.926ZM1011.12 40.926H1006.2V45.846H1011.12V40.926ZM1028.45 45.846V46.502H1027.26C1024.76 46.502 1022.63 48.634 1022.63 51.135C1022.63 53.636 1024.76 55.768 1027.26 55.768H1028.45V56.424H1027.26C1024.39 56.424 1021.97 54.005 1021.97 51.135C1021.97 48.265 1024.39 45.846 1027.26 45.846H1028.45ZM1028.45 40.926H1027.26C1021.65 40.926 1017.05 45.518 1017.05 51.135C1017.05 56.752 1021.65 61.344 1027.26 61.344H1028.45V62H1027.26C1021.28 62 1016.4 57.121 1016.4 51.135C1016.4 45.149 1021.28 40.27 1027.26 40.27H1028.45V40.926ZM1031.92 62V31.25H1032.58V46.461C1033.48 44.124 1035.24 42.197 1037.5 41.09V31.25H1038.15V40.762C1039.3 40.311 1040.53 40.065 1041.84 40.065C1047.3 40.065 1051.77 44.534 1051.77 49.987V62H1051.11V49.987C1051.11 44.903 1046.93 40.721 1041.84 40.721C1040.53 40.721 1039.3 41.008 1038.15 41.5V47.691C1038.93 46.461 1040.29 45.641 1041.84 45.641C1044.22 45.641 1046.19 47.609 1046.19 49.987V62H1045.53V49.987C1045.53 47.978 1043.85 46.297 1041.84 46.297C1039.83 46.297 1038.15 47.978 1038.15 49.987V62H1037.5V41.828C1034.59 43.386 1032.58 46.461 1032.58 49.987V62H1031.92ZM1078.56 33.3H1079.22L1090.82 62H1090.16L1088.48 57.818H1083.07L1084.75 62H1084.1L1082.42 57.818H1069.25L1067.57 62H1066.92L1068.6 57.818H1063.19L1061.51 62H1060.85L1072.49 33.3H1073.15L1075.86 40.024L1078.56 33.3ZM1071.84 51.586H1079.87L1075.86 41.664L1071.84 51.586ZM1072.82 34.12L1065.77 51.586H1071.18L1075.53 40.844L1072.82 34.12ZM1076.18 40.844L1080.53 51.586H1085.94L1078.89 34.12L1076.18 40.844ZM1069.54 57.162H1082.13L1080.12 52.242H1071.55L1069.54 57.162ZM1080.78 52.242L1082.78 57.162H1088.2L1086.23 52.242H1080.78ZM1068.89 57.162L1070.89 52.242H1065.48L1063.47 57.162H1068.89ZM1099.19 39.532V45.928H1102.1C1103.9 45.928 1105.29 44.534 1105.29 42.73C1105.29 40.926 1103.9 39.532 1102.1 39.532H1099.19ZM1099.19 38.876H1102.1C1104.23 38.876 1105.95 40.598 1105.95 42.73C1105.95 44.862 1104.23 46.584 1102.1 46.584H1099.19V51.504H1102.1C1107.02 51.504 1110.87 47.65 1110.87 42.73C1110.87 37.81 1107.02 33.956 1102.1 33.956H1099.19V38.876ZM1093.61 52.16V62H1092.95V33.3H1102.1C1107.34 33.3 1111.53 37.482 1111.53 42.73C1111.53 47.978 1107.34 52.16 1102.1 52.16H1099.19V62H1098.53V52.16H1093.61ZM1093.61 39.532V45.928H1098.53V39.532H1093.61ZM1098.53 33.956H1093.61V38.876H1098.53V33.956ZM1098.53 46.584H1093.61V51.504H1098.53V46.584ZM1115.71 33.3V62H1115.06V33.3H1115.71ZM1121.29 33.3V62H1120.63V33.3H1121.29ZM1141.39 50.11H1149.3V50.766H1141.39V62H1140.73V50.766H1135.81V62H1135.15V33.3H1152.25V33.956H1141.39V38.876H1152.25V39.532H1141.39V44.534H1149.3V45.19H1141.39V50.11ZM1135.81 39.532V44.534H1140.73V39.532H1135.81ZM1140.73 45.19H1135.81V50.11H1140.73V45.19ZM1135.81 33.956V38.876H1140.73V33.956H1135.81ZM1151.85 51.135C1151.85 44.862 1156.93 39.778 1163.21 39.778C1168.21 39.778 1172.43 42.976 1173.95 47.486L1160.62 55.563C1161.4 56.014 1162.26 56.26 1163.21 56.26C1165.26 56.26 1167.02 55.03 1167.84 53.308L1168.45 53.595C1167.55 55.563 1165.54 56.916 1163.21 56.916C1162.02 56.916 1160.91 56.547 1160.01 55.932L1155.58 58.638C1157.51 60.606 1160.21 61.836 1163.21 61.836C1167.47 61.836 1171.2 59.294 1172.92 55.645L1173.5 55.932C1171.69 59.827 1167.76 62.492 1163.21 62.492C1156.93 62.492 1151.85 57.408 1151.85 51.135ZM1152.51 51.135C1152.51 52.324 1152.71 53.431 1153.04 54.497L1157.47 51.791C1157.43 51.586 1157.43 51.34 1157.43 51.135C1157.43 47.937 1160.01 45.354 1163.21 45.354C1164.4 45.354 1165.54 45.723 1166.45 46.338L1170.83 43.673C1168.91 41.664 1166.2 40.434 1163.21 40.434C1157.3 40.434 1152.51 45.231 1152.51 51.135ZM1153.28 55.112C1153.74 56.219 1154.35 57.244 1155.13 58.146L1159.43 55.522C1158.53 54.743 1157.88 53.677 1157.59 52.488L1153.28 55.112ZM1158.08 51.135V51.422L1165.83 46.707C1165.05 46.256 1164.15 46.01 1163.21 46.01C1160.38 46.01 1158.08 48.306 1158.08 51.135ZM1158.16 52.16C1158.41 53.349 1159.11 54.415 1160.05 55.153L1168.25 50.151C1168 48.962 1167.35 47.896 1166.4 47.117L1158.16 52.16ZM1167.02 46.789C1167.92 47.568 1168.58 48.593 1168.82 49.823L1173.17 47.158C1172.72 46.051 1172.06 45.067 1171.32 44.165L1167.02 46.789ZM1177.99 40.926H1174.75V40.27H1177.99V33.3H1178.65V40.27H1183.57V33.3H1184.22V40.27H1187.46V40.926H1184.22V45.846H1187.46V46.502H1184.22V62H1183.57V46.502H1178.65V62H1177.99V46.502H1174.75V45.846H1177.99V40.926ZM1183.57 40.926H1178.65V45.846H1183.57V40.926ZM1200.9 45.846V46.502H1199.71C1197.21 46.502 1195.08 48.634 1195.08 51.135C1195.08 53.636 1197.21 55.768 1199.71 55.768H1200.9V56.424H1199.71C1196.84 56.424 1194.42 54.005 1194.42 51.135C1194.42 48.265 1196.84 45.846 1199.71 45.846H1200.9ZM1200.9 40.926H1199.71C1194.09 40.926 1189.5 45.518 1189.5 51.135C1189.5 56.752 1194.09 61.344 1199.71 61.344H1200.9V62H1199.71C1193.73 62 1188.85 57.121 1188.85 51.135C1188.85 45.149 1193.73 40.27 1199.71 40.27H1200.9V40.926ZM1204.37 62V31.25H1205.03V46.461C1205.93 44.124 1207.69 42.197 1209.95 41.09V31.25H1210.6V40.762C1211.75 40.311 1212.98 40.065 1214.29 40.065C1219.74 40.065 1224.21 44.534 1224.21 49.987V62H1223.56V49.987C1223.56 44.903 1219.38 40.721 1214.29 40.721C1212.98 40.721 1211.75 41.008 1210.6 41.5V47.691C1211.38 46.461 1212.73 45.641 1214.29 45.641C1216.67 45.641 1218.64 47.609 1218.64 49.987V62H1217.98V49.987C1217.98 47.978 1216.3 46.297 1214.29 46.297C1212.28 46.297 1210.6 47.978 1210.6 49.987V62H1209.95V41.828C1207.03 43.386 1205.03 46.461 1205.03 49.987V62H1204.37ZM1251.01 33.3H1251.67L1263.27 62H1262.61L1260.93 57.818H1255.52L1257.2 62H1256.54L1254.86 57.818H1241.7L1240.02 62H1239.37L1241.05 57.818H1235.63L1233.95 62H1233.3L1244.94 33.3H1245.6L1248.3 40.024L1251.01 33.3ZM1244.29 51.586H1252.32L1248.3 41.664L1244.29 51.586ZM1245.27 34.12L1238.22 51.586H1243.63L1247.98 40.844L1245.27 34.12ZM1248.63 40.844L1252.98 51.586H1258.39L1251.34 34.12L1248.63 40.844ZM1241.99 57.162H1254.58L1252.57 52.242H1244L1241.99 57.162ZM1253.22 52.242L1255.23 57.162H1260.64L1258.68 52.242H1253.22ZM1241.33 57.162L1243.34 52.242H1237.93L1235.92 57.162H1241.33ZM1271.63 39.532V45.928H1274.54C1276.35 45.928 1277.74 44.534 1277.74 42.73C1277.74 40.926 1276.35 39.532 1274.54 39.532H1271.63ZM1271.63 38.876H1274.54C1276.68 38.876 1278.4 40.598 1278.4 42.73C1278.4 44.862 1276.68 46.584 1274.54 46.584H1271.63V51.504H1274.54C1279.46 51.504 1283.32 47.65 1283.32 42.73C1283.32 37.81 1279.46 33.956 1274.54 33.956H1271.63V38.876ZM1266.06 52.16V62H1265.4V33.3H1274.54C1279.79 33.3 1283.97 37.482 1283.97 42.73C1283.97 47.978 1279.79 52.16 1274.54 52.16H1271.63V62H1270.98V52.16H1266.06ZM1266.06 39.532V45.928H1270.98V39.532H1266.06ZM1270.98 33.956H1266.06V38.876H1270.98V33.956ZM1270.98 46.584H1266.06V51.504H1270.98V46.584ZM1288.16 33.3V62H1287.5V33.3H1288.16ZM1293.74 33.3V62H1293.08V33.3H1293.74ZM1313.84 50.11H1321.75V50.766H1313.84V62H1313.18V50.766H1308.26V62H1307.6V33.3H1324.7V33.956H1313.84V38.876H1324.7V39.532H1313.84V44.534H1321.75V45.19H1313.84V50.11ZM1308.26 39.532V44.534H1313.18V39.532H1308.26ZM1313.18 45.19H1308.26V50.11H1313.18V45.19ZM1308.26 33.956V38.876H1313.18V33.956H1308.26ZM1324.3 51.135C1324.3 44.862 1329.38 39.778 1335.66 39.778C1340.66 39.778 1344.88 42.976 1346.4 47.486L1333.07 55.563C1333.85 56.014 1334.71 56.26 1335.66 56.26C1337.71 56.26 1339.47 55.03 1340.29 53.308L1340.9 53.595C1340 55.563 1337.99 56.916 1335.66 56.916C1334.47 56.916 1333.36 56.547 1332.46 55.932L1328.03 58.638C1329.96 60.606 1332.66 61.836 1335.66 61.836C1339.92 61.836 1343.65 59.294 1345.37 55.645L1345.95 55.932C1344.14 59.827 1340.21 62.492 1335.66 62.492C1329.38 62.492 1324.3 57.408 1324.3 51.135ZM1324.95 51.135C1324.95 52.324 1325.16 53.431 1325.49 54.497L1329.92 51.791C1329.87 51.586 1329.87 51.34 1329.87 51.135C1329.87 47.937 1332.46 45.354 1335.66 45.354C1336.84 45.354 1337.99 45.723 1338.89 46.338L1343.28 43.673C1341.35 41.664 1338.65 40.434 1335.66 40.434C1329.75 40.434 1324.95 45.231 1324.95 51.135ZM1325.73 55.112C1326.18 56.219 1326.8 57.244 1327.58 58.146L1331.88 55.522C1330.98 54.743 1330.33 53.677 1330.04 52.488L1325.73 55.112ZM1330.53 51.135V51.422L1338.28 46.707C1337.5 46.256 1336.6 46.01 1335.66 46.01C1332.83 46.01 1330.53 48.306 1330.53 51.135ZM1330.61 52.16C1330.86 53.349 1331.56 54.415 1332.5 55.153L1340.7 50.151C1340.45 48.962 1339.8 47.896 1338.85 47.117L1330.61 52.16ZM1339.47 46.789C1340.37 47.568 1341.03 48.593 1341.27 49.823L1345.62 47.158C1345.17 46.051 1344.51 45.067 1343.77 44.165L1339.47 46.789ZM1350.44 40.926H1347.2V40.27H1350.44V33.3H1351.1V40.27H1356.02V33.3H1356.67V40.27H1359.91V40.926H1356.67V45.846H1359.91V46.502H1356.67V62H1356.02V46.502H1351.1V62H1350.44V46.502H1347.2V45.846H1350.44V40.926ZM1356.02 40.926H1351.1V45.846H1356.02V40.926ZM1373.35 45.846V46.502H1372.16C1369.66 46.502 1367.53 48.634 1367.53 51.135C1367.53 53.636 1369.66 55.768 1372.16 55.768H1373.35V56.424H1372.16C1369.29 56.424 1366.87 54.005 1366.87 51.135C1366.87 48.265 1369.29 45.846 1372.16 45.846H1373.35ZM1373.35 40.926H1372.16C1366.54 40.926 1361.95 45.518 1361.95 51.135C1361.95 56.752 1366.54 61.344 1372.16 61.344H1373.35V62H1372.16C1366.17 62 1361.3 57.121 1361.3 51.135C1361.3 45.149 1366.17 40.27 1372.16 40.27H1373.35V40.926ZM1376.82 62V31.25H1377.47V46.461C1378.38 44.124 1380.14 42.197 1382.39 41.09V31.25H1383.05V40.762C1384.2 40.311 1385.43 40.065 1386.74 40.065C1392.19 40.065 1396.66 44.534 1396.66 49.987V62H1396.01V49.987C1396.01 44.903 1391.82 40.721 1386.74 40.721C1385.43 40.721 1384.2 41.008 1383.05 41.5V47.691C1383.83 46.461 1385.18 45.641 1386.74 45.641C1389.12 45.641 1391.09 47.609 1391.09 49.987V62H1390.43V49.987C1390.43 47.978 1388.75 46.297 1386.74 46.297C1384.73 46.297 1383.05 47.978 1383.05 49.987V62H1382.39V41.828C1379.48 43.386 1377.47 46.461 1377.47 49.987V62H1376.82ZM1423.46 33.3H1424.11L1435.72 62H1435.06L1433.38 57.818H1427.97L1429.65 62H1428.99L1427.31 57.818H1414.15L1412.47 62H1411.81L1413.49 57.818H1408.08L1406.4 62H1405.75L1417.39 33.3H1418.05L1420.75 40.024L1423.46 33.3ZM1416.73 51.586H1424.77L1420.75 41.664L1416.73 51.586ZM1417.72 34.12L1410.67 51.586H1416.08L1420.42 40.844L1417.72 34.12ZM1421.08 40.844L1425.43 51.586H1430.84L1423.79 34.12L1421.08 40.844ZM1414.44 57.162H1427.02L1425.02 52.242H1416.45L1414.44 57.162ZM1425.67 52.242L1427.68 57.162H1433.09L1431.12 52.242H1425.67ZM1413.78 57.162L1415.79 52.242H1410.38L1408.37 57.162H1413.78ZM1444.08 39.532V45.928H1446.99C1448.8 45.928 1450.19 44.534 1450.19 42.73C1450.19 40.926 1448.8 39.532 1446.99 39.532H1444.08ZM1444.08 38.876H1446.99C1449.13 38.876 1450.85 40.598 1450.85 42.73C1450.85 44.862 1449.13 46.584 1446.99 46.584H1444.08V51.504H1446.99C1451.91 51.504 1455.77 47.65 1455.77 42.73C1455.77 37.81 1451.91 33.956 1446.99 33.956H1444.08V38.876ZM1438.51 52.16V62H1437.85V33.3H1446.99C1452.24 33.3 1456.42 37.482 1456.42 42.73C1456.42 47.978 1452.24 52.16 1446.99 52.16H1444.08V62H1443.43V52.16H1438.51ZM1438.51 39.532V45.928H1443.43V39.532H1438.51ZM1443.43 33.956H1438.51V38.876H1443.43V33.956ZM1443.43 46.584H1438.51V51.504H1443.43V46.584ZM1460.61 33.3V62H1459.95V33.3H1460.61ZM1466.18 33.3V62H1465.53V33.3H1466.18ZM1486.28 50.11H1494.2V50.766H1486.28V62H1485.63V50.766H1480.71V62H1480.05V33.3H1497.15V33.956H1486.28V38.876H1497.15V39.532H1486.28V44.534H1494.2V45.19H1486.28V50.11ZM1480.71 39.532V44.534H1485.63V39.532H1480.71ZM1485.63 45.19H1480.71V50.11H1485.63V45.19ZM1480.71 33.956V38.876H1485.63V33.956H1480.71ZM1496.75 51.135C1496.75 44.862 1501.83 39.778 1508.1 39.778C1513.11 39.778 1517.33 42.976 1518.85 47.486L1505.52 55.563C1506.3 56.014 1507.16 56.26 1508.1 56.26C1510.15 56.26 1511.92 55.03 1512.74 53.308L1513.35 53.595C1512.45 55.563 1510.44 56.916 1508.1 56.916C1506.91 56.916 1505.81 56.547 1504.91 55.932L1500.48 58.638C1502.4 60.606 1505.11 61.836 1508.1 61.836C1512.37 61.836 1516.1 59.294 1517.82 55.645L1518.39 55.932C1516.59 59.827 1512.65 62.492 1508.1 62.492C1501.83 62.492 1496.75 57.408 1496.75 51.135ZM1497.4 51.135C1497.4 52.324 1497.61 53.431 1497.94 54.497L1502.36 51.791C1502.32 51.586 1502.32 51.34 1502.32 51.135C1502.32 47.937 1504.91 45.354 1508.1 45.354C1509.29 45.354 1510.44 45.723 1511.34 46.338L1515.73 43.673C1513.8 41.664 1511.1 40.434 1508.1 40.434C1502.2 40.434 1497.4 45.231 1497.4 51.135ZM1498.18 55.112C1498.63 56.219 1499.25 57.244 1500.03 58.146L1504.33 55.522C1503.43 54.743 1502.77 53.677 1502.49 52.488L1498.18 55.112ZM1502.98 51.135V51.422L1510.73 46.707C1509.95 46.256 1509.05 46.01 1508.1 46.01C1505.27 46.01 1502.98 48.306 1502.98 51.135ZM1503.06 52.16C1503.31 53.349 1504 54.415 1504.95 55.153L1513.15 50.151C1512.9 48.962 1512.24 47.896 1511.3 47.117L1503.06 52.16ZM1511.92 46.789C1512.82 47.568 1513.47 48.593 1513.72 49.823L1518.07 47.158C1517.62 46.051 1516.96 45.067 1516.22 44.165L1511.92 46.789ZM1522.89 40.926H1519.65V40.27H1522.89V33.3H1523.54V40.27H1528.46V33.3H1529.12V40.27H1532.36V40.926H1529.12V45.846H1532.36V46.502H1529.12V62H1528.46V46.502H1523.54V62H1522.89V46.502H1519.65V45.846H1522.89V40.926ZM1528.46 40.926H1523.54V45.846H1528.46V40.926ZM1545.8 45.846V46.502H1544.61C1542.11 46.502 1539.98 48.634 1539.98 51.135C1539.98 53.636 1542.11 55.768 1544.61 55.768H1545.8V56.424H1544.61C1541.74 56.424 1539.32 54.005 1539.32 51.135C1539.32 48.265 1541.74 45.846 1544.61 45.846H1545.8ZM1545.8 40.926H1544.61C1538.99 40.926 1534.4 45.518 1534.4 51.135C1534.4 56.752 1538.99 61.344 1544.61 61.344H1545.8V62H1544.61C1538.62 62 1533.74 57.121 1533.74 51.135C1533.74 45.149 1538.62 40.27 1544.61 40.27H1545.8V40.926ZM1549.27 62V31.25H1549.92V46.461C1550.82 44.124 1552.59 42.197 1554.84 41.09V31.25H1555.5V40.762C1556.65 40.311 1557.88 40.065 1559.19 40.065C1564.64 40.065 1569.11 44.534 1569.11 49.987V62H1568.45V49.987C1568.45 44.903 1564.27 40.721 1559.19 40.721C1557.88 40.721 1556.65 41.008 1555.5 41.5V47.691C1556.28 46.461 1557.63 45.641 1559.19 45.641C1561.57 45.641 1563.53 47.609 1563.53 49.987V62H1562.88V49.987C1562.88 47.978 1561.2 46.297 1559.19 46.297C1557.18 46.297 1555.5 47.978 1555.5 49.987V62H1554.84V41.828C1551.93 43.386 1549.92 46.461 1549.92 49.987V62H1549.27ZM1595.91 33.3H1596.56L1608.17 62H1607.51L1605.83 57.818H1600.42L1602.1 62H1601.44L1599.76 57.818H1586.6L1584.92 62H1584.26L1585.94 57.818H1580.53L1578.85 62H1578.19L1589.84 33.3H1590.49L1593.2 40.024L1595.91 33.3ZM1589.18 51.586H1597.22L1593.2 41.664L1589.18 51.586ZM1590.17 34.12L1583.11 51.586H1588.53L1592.87 40.844L1590.17 34.12ZM1593.53 40.844L1597.87 51.586H1603.29L1596.23 34.12L1593.53 40.844ZM1586.89 57.162H1599.47L1597.46 52.242H1588.9L1586.89 57.162ZM1598.12 52.242L1600.13 57.162H1605.54L1603.57 52.242H1598.12ZM1586.23 57.162L1588.24 52.242H1582.83L1580.82 57.162H1586.23ZM1616.53 39.532V45.928H1619.44C1621.25 45.928 1622.64 44.534 1622.64 42.73C1622.64 40.926 1621.25 39.532 1619.44 39.532H1616.53ZM1616.53 38.876H1619.44C1621.57 38.876 1623.3 40.598 1623.3 42.73C1623.3 44.862 1621.57 46.584 1619.44 46.584H1616.53V51.504H1619.44C1624.36 51.504 1628.22 47.65 1628.22 42.73C1628.22 37.81 1624.36 33.956 1619.44 33.956H1616.53V38.876ZM1610.95 52.16V62H1610.3V33.3H1619.44C1624.69 33.3 1628.87 37.482 1628.87 42.73C1628.87 47.978 1624.69 52.16 1619.44 52.16H1616.53V62H1615.87V52.16H1610.95ZM1610.95 39.532V45.928H1615.87V39.532H1610.95ZM1615.87 33.956H1610.95V38.876H1615.87V33.956ZM1615.87 46.584H1610.95V51.504H1615.87V46.584ZM1633.06 33.3V62H1632.4V33.3H1633.06ZM1638.63 33.3V62H1637.98V33.3H1638.63ZM1658.73 50.11H1666.64V50.766H1658.73V62H1658.08V50.766H1653.16V62H1652.5V33.3H1669.6V33.956H1658.73V38.876H1669.6V39.532H1658.73V44.534H1666.64V45.19H1658.73V50.11ZM1653.16 39.532V44.534H1658.08V39.532H1653.16ZM1658.08 45.19H1653.16V50.11H1658.08V45.19ZM1653.16 33.956V38.876H1658.08V33.956H1653.16ZM1669.19 51.135C1669.19 44.862 1674.28 39.778 1680.55 39.778C1685.55 39.778 1689.78 42.976 1691.29 47.486L1677.97 55.563C1678.75 56.014 1679.61 56.26 1680.55 56.26C1682.6 56.26 1684.36 55.03 1685.18 53.308L1685.8 53.595C1684.9 55.563 1682.89 56.916 1680.55 56.916C1679.36 56.916 1678.26 56.547 1677.35 55.932L1672.93 58.638C1674.85 60.606 1677.56 61.836 1680.55 61.836C1684.82 61.836 1688.55 59.294 1690.27 55.645L1690.84 55.932C1689.04 59.827 1685.1 62.492 1680.55 62.492C1674.28 62.492 1669.19 57.408 1669.19 51.135ZM1669.85 51.135C1669.85 52.324 1670.06 53.431 1670.38 54.497L1674.81 51.791C1674.77 51.586 1674.77 51.34 1674.77 51.135C1674.77 47.937 1677.35 45.354 1680.55 45.354C1681.74 45.354 1682.89 45.723 1683.79 46.338L1688.18 43.673C1686.25 41.664 1683.54 40.434 1680.55 40.434C1674.65 40.434 1669.85 45.231 1669.85 51.135ZM1670.63 55.112C1671.08 56.219 1671.7 57.244 1672.47 58.146L1676.78 55.522C1675.88 54.743 1675.22 53.677 1674.93 52.488L1670.63 55.112ZM1675.43 51.135V51.422L1683.18 46.707C1682.4 46.256 1681.49 46.01 1680.55 46.01C1677.72 46.01 1675.43 48.306 1675.43 51.135ZM1675.51 52.16C1675.75 53.349 1676.45 54.415 1677.39 55.153L1685.59 50.151C1685.35 48.962 1684.69 47.896 1683.75 47.117L1675.51 52.16ZM1684.36 46.789C1685.27 47.568 1685.92 48.593 1686.17 49.823L1690.51 47.158C1690.06 46.051 1689.41 45.067 1688.67 44.165L1684.36 46.789ZM1695.34 40.926H1692.1V40.27H1695.34V33.3H1695.99V40.27H1700.91V33.3H1701.57V40.27H1704.81V40.926H1701.57V45.846H1704.81V46.502H1701.57V62H1700.91V46.502H1695.99V62H1695.34V46.502H1692.1V45.846H1695.34V40.926ZM1700.91 40.926H1695.99V45.846H1700.91V40.926ZM1718.25 45.846V46.502H1717.06C1714.56 46.502 1712.42 48.634 1712.42 51.135C1712.42 53.636 1714.56 55.768 1717.06 55.768H1718.25V56.424H1717.06C1714.19 56.424 1711.77 54.005 1711.77 51.135C1711.77 48.265 1714.19 45.846 1717.06 45.846H1718.25ZM1718.25 40.926H1717.06C1711.44 40.926 1706.85 45.518 1706.85 51.135C1706.85 56.752 1711.44 61.344 1717.06 61.344H1718.25V62H1717.06C1711.07 62 1706.19 57.121 1706.19 51.135C1706.19 45.149 1711.07 40.27 1717.06 40.27H1718.25V40.926ZM1721.71 62V31.25H1722.37V46.461C1723.27 44.124 1725.04 42.197 1727.29 41.09V31.25H1727.95V40.762C1729.09 40.311 1730.32 40.065 1731.64 40.065C1737.09 40.065 1741.56 44.534 1741.56 49.987V62H1740.9V49.987C1740.9 44.903 1736.72 40.721 1731.64 40.721C1730.32 40.721 1729.09 41.008 1727.95 41.5V47.691C1728.73 46.461 1730.08 45.641 1731.64 45.641C1734.01 45.641 1735.98 47.609 1735.98 49.987V62H1735.33V49.987C1735.33 47.978 1733.65 46.297 1731.64 46.297C1729.63 46.297 1727.95 47.978 1727.95 49.987V62H1727.29V41.828C1724.38 43.386 1722.37 46.461 1722.37 49.987V62H1721.71ZM1768.35 33.3H1769.01L1780.61 62H1779.96L1778.28 57.818H1772.86L1774.55 62H1773.89L1772.21 57.818H1759.05L1757.37 62H1756.71L1758.39 57.818H1752.98L1751.3 62H1750.64L1762.29 33.3H1762.94L1765.65 40.024L1768.35 33.3ZM1761.63 51.586H1769.67L1765.65 41.664L1761.63 51.586ZM1762.61 34.12L1755.56 51.586H1760.97L1765.32 40.844L1762.61 34.12ZM1765.98 40.844L1770.32 51.586H1775.73L1768.68 34.12L1765.98 40.844ZM1759.33 57.162H1771.92L1769.91 52.242H1761.34L1759.33 57.162ZM1770.57 52.242L1772.58 57.162H1777.99L1776.02 52.242H1770.57ZM1758.68 57.162L1760.69 52.242H1755.28L1753.27 57.162H1758.68ZM1788.98 39.532V45.928H1791.89C1793.69 45.928 1795.09 44.534 1795.09 42.73C1795.09 40.926 1793.69 39.532 1791.89 39.532H1788.98ZM1788.98 38.876H1791.89C1794.02 38.876 1795.74 40.598 1795.74 42.73C1795.74 44.862 1794.02 46.584 1791.89 46.584H1788.98V51.504H1791.89C1796.81 51.504 1800.66 47.65 1800.66 42.73C1800.66 37.81 1796.81 33.956 1791.89 33.956H1788.98V38.876ZM1783.4 52.16V62H1782.75V33.3H1791.89C1797.14 33.3 1801.32 37.482 1801.32 42.73C1801.32 47.978 1797.14 52.16 1791.89 52.16H1788.98V62H1788.32V52.16H1783.4ZM1783.4 39.532V45.928H1788.32V39.532H1783.4ZM1788.32 33.956H1783.4V38.876H1788.32V33.956ZM1788.32 46.584H1783.4V51.504H1788.32V46.584ZM1805.5 33.3V62H1804.85V33.3H1805.5ZM1811.08 33.3V62H1810.42V33.3H1811.08ZM1831.18 50.11H1839.09V50.766H1831.18V62H1830.52V50.766H1825.6V62H1824.95V33.3H1842.04V33.956H1831.18V38.876H1842.04V39.532H1831.18V44.534H1839.09V45.19H1831.18V50.11ZM1825.6 39.532V44.534H1830.52V39.532H1825.6ZM1830.52 45.19H1825.6V50.11H1830.52V45.19ZM1825.6 33.956V38.876H1830.52V33.956H1825.6ZM1841.64 51.135C1841.64 44.862 1846.73 39.778 1853 39.778C1858 39.778 1862.22 42.976 1863.74 47.486L1850.42 55.563C1851.2 56.014 1852.06 56.26 1853 56.26C1855.05 56.26 1856.81 55.03 1857.63 53.308L1858.25 53.595C1857.35 55.563 1855.34 56.916 1853 56.916C1851.81 56.916 1850.7 56.547 1849.8 55.932L1845.37 58.638C1847.3 60.606 1850.01 61.836 1853 61.836C1857.26 61.836 1860.99 59.294 1862.72 55.645L1863.29 55.932C1861.49 59.827 1857.55 62.492 1853 62.492C1846.73 62.492 1841.64 57.408 1841.64 51.135ZM1842.3 51.135C1842.3 52.324 1842.5 53.431 1842.83 54.497L1847.26 51.791C1847.22 51.586 1847.22 51.34 1847.22 51.135C1847.22 47.937 1849.8 45.354 1853 45.354C1854.19 45.354 1855.34 45.723 1856.24 46.338L1860.63 43.673C1858.7 41.664 1855.99 40.434 1853 40.434C1847.1 40.434 1842.3 45.231 1842.3 51.135ZM1843.08 55.112C1843.53 56.219 1844.14 57.244 1844.92 58.146L1849.23 55.522C1848.33 54.743 1847.67 53.677 1847.38 52.488L1843.08 55.112ZM1847.87 51.135V51.422L1855.62 46.707C1854.84 46.256 1853.94 46.01 1853 46.01C1850.17 46.01 1847.87 48.306 1847.87 51.135ZM1847.96 52.16C1848.2 53.349 1848.9 54.415 1849.84 55.153L1858.04 50.151C1857.8 48.962 1857.14 47.896 1856.2 47.117L1847.96 52.16ZM1856.81 46.789C1857.71 47.568 1858.37 48.593 1858.62 49.823L1862.96 47.158C1862.51 46.051 1861.86 45.067 1861.12 44.165L1856.81 46.789ZM1867.79 40.926H1864.55V40.27H1867.79V33.3H1868.44V40.27H1873.36V33.3H1874.02V40.27H1877.26V40.926H1874.02V45.846H1877.26V46.502H1874.02V62H1873.36V46.502H1868.44V62H1867.79V46.502H1864.55V45.846H1867.79V40.926ZM1873.36 40.926H1868.44V45.846H1873.36V40.926ZM1890.69 45.846V46.502H1889.5C1887 46.502 1884.87 48.634 1884.87 51.135C1884.87 53.636 1887 55.768 1889.5 55.768H1890.69V56.424H1889.5C1886.63 56.424 1884.22 54.005 1884.22 51.135C1884.22 48.265 1886.63 45.846 1889.5 45.846H1890.69ZM1890.69 40.926H1889.5C1883.89 40.926 1879.3 45.518 1879.3 51.135C1879.3 56.752 1883.89 61.344 1889.5 61.344H1890.69V62H1889.5C1883.52 62 1878.64 57.121 1878.64 51.135C1878.64 45.149 1883.52 40.27 1889.5 40.27H1890.69V40.926ZM1894.16 62V31.25H1894.82V46.461C1895.72 44.124 1897.48 42.197 1899.74 41.09V31.25H1900.39V40.762C1901.54 40.311 1902.77 40.065 1904.08 40.065C1909.54 40.065 1914.01 44.534 1914.01 49.987V62H1913.35V49.987C1913.35 44.903 1909.17 40.721 1904.08 40.721C1902.77 40.721 1901.54 41.008 1900.39 41.5V47.691C1901.17 46.461 1902.53 45.641 1904.08 45.641C1906.46 45.641 1908.43 47.609 1908.43 49.987V62H1907.77V49.987C1907.77 47.978 1906.09 46.297 1904.08 46.297C1902.08 46.297 1900.39 47.978 1900.39 49.987V62H1899.74V41.828C1896.83 43.386 1894.82 46.461 1894.82 49.987V62H1894.16ZM1940.8 33.3H1941.46L1953.06 62H1952.41L1950.72 57.818H1945.31L1946.99 62H1946.34L1944.66 57.818H1931.5L1929.81 62H1929.16L1930.84 57.818H1925.43L1923.75 62H1923.09L1934.73 33.3H1935.39L1938.1 40.024L1940.8 33.3ZM1934.08 51.586H1942.11L1938.1 41.664L1934.08 51.586ZM1935.06 34.12L1928.01 51.586H1933.42L1937.77 40.844L1935.06 34.12ZM1938.42 40.844L1942.77 51.586H1948.18L1941.13 34.12L1938.42 40.844ZM1931.78 57.162H1944.37L1942.36 52.242H1933.79L1931.78 57.162ZM1943.02 52.242L1945.03 57.162H1950.44L1948.47 52.242H1943.02ZM1931.13 57.162L1933.14 52.242H1927.72L1925.71 57.162H1931.13ZM1961.43 39.532V45.928H1964.34C1966.14 45.928 1967.54 44.534 1967.54 42.73C1967.54 40.926 1966.14 39.532 1964.34 39.532H1961.43ZM1961.43 38.876H1964.34C1966.47 38.876 1968.19 40.598 1968.19 42.73C1968.19 44.862 1966.47 46.584 1964.34 46.584H1961.43V51.504H1964.34C1969.26 51.504 1973.11 47.65 1973.11 42.73C1973.11 37.81 1969.26 33.956 1964.34 33.956H1961.43V38.876ZM1955.85 52.16V62H1955.19V33.3H1964.34C1969.59 33.3 1973.77 37.482 1973.77 42.73C1973.77 47.978 1969.59 52.16 1964.34 52.16H1961.43V62H1960.77V52.16H1955.85ZM1955.85 39.532V45.928H1960.77V39.532H1955.85ZM1960.77 33.956H1955.85V38.876H1960.77V33.956ZM1960.77 46.584H1955.85V51.504H1960.77V46.584ZM1977.95 33.3V62H1977.3V33.3H1977.95ZM1983.53 33.3V62H1982.87V33.3H1983.53Z" fill="white"/>
</g>
<defs>
<clipPath id="clip0_0_26">
<rect width="1940" height="343" fill="white"/>
</clipPath>
</defs>
</svg>
